<?xml version="1.0" standalone="no"?>
<!DOCTYPE svg PUBLIC "-//W3C//DTD SVG 20010904//EN"
 "http://www.w3.org/TR/2001/REC-SVG-20010904/DTD/svg10.dtd">
<svg version="1.0" xmlns="http://www.w3.org/2000/svg"
 width="200.000000pt" height="200.000000pt" viewBox="0 0 200.000000 200.000000"
 preserveAspectRatio="xMidYMid meet">

<g transform="translate(10.000000,200.000000) scale(0.100000,-0.100000)"
fill="#000" stroke="none">
<path d="M190 1633 c-54 -20 -81 -83 -56 -132 31 -58 104 -70 150 -25 47 48
32 124 -29 150 -37 15 -42 15 -65 7z"/>
<path d="M122 1418 c-15 -15 -15 -37 0 -277 10 -165 14 -197 30 -213 16 -16
18 -39 18 -252 0 -231 0 -235 22 -250 25 -18 143 -22 167 -7 27 17 -1 54 -50
66 l-44 11 -3 204 c-2 191 -1 205 17 224 17 18 21 38 23 125 l3 104 48 -58
c44 -54 47 -61 47 -115 0 -51 3 -61 26 -79 25 -20 39 -21 258 -21 l231 -1 98
-104 98 -105 -35 -43 c-31 -38 -39 -43 -70 -39 -29 3 -41 -1 -66 -26 -33 -34
-37 -59 -15 -101 45 -88 165 -46 165 58 0 18 12 38 35 61 l35 34 40 -39 c30
-29 38 -44 34 -61 -14 -57 61 -117 119 -95 93 36 64 177 -36 169 -36 -2 -42 1
-69 39 -36 50 -38 45 82 168 l81 84 241 3 c281 4 268 -2 268 113 0 114 49 105
-560 105 -519 0 -524 0 -546 21 -16 15 -72 33 -190 60 l-168 40 -30 -22 -30
-22 -47 53 c-30 34 -49 66 -53 89 -5 32 -14 40 -72 74 -72 40 -84 43 -102 25z
m498 -343 c0 -20 5 -25 25 -25 18 0 25 -5 25 -20 0 -15 -7 -20 -25 -20 -21 0
-25 -5 -25 -30 0 -25 -4 -30 -25 -30 -21 0 -25 5 -25 30 0 27 -3 30 -30 30
-23 0 -30 4 -30 20 0 16 7 20 30 20 25 0 30 4 30 25 0 20 5 25 25 25 20 0 25
-5 25 -25z m598 -264 c-29 -38 -56 -67 -60 -65 -3 2 -29 33 -57 69 l-51 65
110 0 111 0 -53 -69z m-170 -269 c17 -22 15 -62 -5 -84 -34 -38 -103 -11 -103
42 0 61 70 89 108 42z m321 3 c19 -18 17 -62 -4 -85 -23 -26 -60 -25 -85 0
-60 60 27 143 89 85z"/>
<path d="M648 1360 c-14 -11 -28 -29 -31 -41 -5 -18 2 -15 34 17 21 21 39 39
39 41 0 9 -20 1 -42 -17z"/>
<path d="M676 1321 c-62 -63 -65 -81 -15 -106 40 -21 63 -19 98 11 33 28 42
75 21 114 -24 46 -44 42 -104 -19z"/>
<path d="M839 1292 c-33 -27 -39 -112 -10 -141 21 -21 26 -21 486 -21 452 0
466 1 485 20 24 24 26 57 4 88 -15 22 -18 22 -261 22 -227 0 -248 1 -267 19
-19 16 -45 19 -218 24 -179 6 -199 5 -219 -11z"/>
</g>
</svg>
